<svg width="400" height="400" viewBox="0 0 400 400" fill="none" xmlns="http://www.w3.org/2000/svg">
<rect width="400" height="400" fill="white"/>
<path d="M120.913 264L165.203 135H195.535L239.825 264H214.32L205.186 236.295H155.553L146.246 264H120.913ZM162.274 215.517H198.465L177.095 151.277H183.644L162.274 215.517Z" fill="#073B4C"/>
<path d="M239.161 135C247.893 135 255.591 136.616 262.254 139.848C269.033 142.965 274.317 147.583 278.109 153.701C281.9 159.703 283.797 167.034 283.797 175.691C283.797 184.58 281.671 192.142 277.42 198.375C273.284 204.608 267.654 209.225 260.531 212.226L290 264H263.46L236.937 216.382H230.238L223.155 195.605H239.505C243.756 195.605 247.433 194.797 250.535 193.181C253.637 191.449 256.05 189.083 257.774 186.081C259.497 183.08 260.359 179.616 260.359 175.691C260.358 171.651 259.497 168.188 257.774 165.302C256.05 162.301 253.637 159.992 250.535 158.376C247.433 156.645 243.756 155.779 239.505 155.779H214.862V171.279L202.493 135H239.161Z" fill="url(#paint0_linear_2921_443)"/>
<path d="M121.115 241.21L110 230.206L111.065 227.049L125.29 228.834L124.431 231.381L121.387 230.964L119.651 236.112L122.047 238.448L121.115 241.21ZM117.847 234.378L119.106 230.647L112.089 229.678L112.384 229.038L117.847 234.378Z" fill="#073B4C"/>
<path d="M129.126 229.262L116.474 222.874L117.224 220.65L119.067 221.557L118.38 221.883C117.986 221.322 117.75 220.702 117.674 220.023C117.59 219.328 117.669 218.622 117.911 217.904C118.218 216.995 118.703 216.267 119.365 215.72C120.015 215.168 120.764 214.816 121.611 214.665C122.463 214.502 123.335 214.572 124.227 214.876C124.965 215.127 125.615 215.502 126.177 216C126.743 216.486 127.195 217.053 127.533 217.701C127.86 218.346 128.059 219.034 128.131 219.765C128.191 220.492 128.098 221.22 127.852 221.949C127.593 222.714 127.217 223.359 126.721 223.884C126.218 224.392 125.65 224.719 125.018 224.864L124.759 224.215L129.955 226.805L129.126 229.262ZM125.631 221.453C125.828 220.867 125.861 220.298 125.729 219.746C125.584 219.191 125.311 218.704 124.908 218.287C124.508 217.858 124.011 217.542 123.416 217.339C122.904 217.165 122.416 217.119 121.95 217.2C121.489 217.27 121.083 217.451 120.732 217.745C120.381 218.039 120.118 218.442 119.945 218.957C119.751 219.531 119.726 220.095 119.871 220.651C120.007 221.191 120.277 221.669 120.68 222.087C121.083 222.504 121.583 222.814 122.178 223.016C122.689 223.191 123.182 223.245 123.655 223.18C124.12 223.098 124.529 222.911 124.88 222.617C125.219 222.319 125.469 221.931 125.631 221.453Z" fill="#073B4C"/>
<path d="M133.186 217.229L120.533 210.84L121.284 208.616L123.127 209.524L122.44 209.85C122.045 209.289 121.81 208.669 121.734 207.99C121.65 207.294 121.729 206.588 121.971 205.871C122.277 204.962 122.762 204.234 123.424 203.686C124.075 203.134 124.824 202.783 125.671 202.631C126.522 202.468 127.394 202.538 128.287 202.842C129.024 203.094 129.674 203.468 130.236 203.966C130.802 204.452 131.254 205.019 131.593 205.668C131.919 206.312 132.118 207 132.19 207.731C132.25 208.458 132.157 209.186 131.911 209.916C131.653 210.681 131.276 211.326 130.781 211.85C130.277 212.359 129.71 212.685 129.077 212.83L128.818 212.182L134.015 214.771L133.186 217.229ZM129.69 209.419C129.888 208.833 129.92 208.265 129.788 207.713C129.644 207.157 129.37 206.671 128.967 206.253C128.568 205.824 128.071 205.508 127.476 205.306C126.964 205.131 126.475 205.085 126.01 205.166C125.549 205.236 125.142 205.418 124.791 205.711C124.44 206.005 124.178 206.409 124.004 206.923C123.811 207.497 123.786 208.062 123.93 208.618C124.067 209.157 124.336 209.636 124.74 210.053C125.143 210.47 125.642 210.78 126.237 210.983C126.749 211.157 127.241 211.212 127.714 211.146C128.18 211.065 128.588 210.877 128.939 210.583C129.279 210.286 129.529 209.898 129.69 209.419Z" fill="#073B4C"/>
<path d="M135.135 200.357C134.926 200.979 134.637 201.501 134.269 201.922C133.906 202.332 133.481 202.607 132.995 202.748C132.51 202.889 131.982 202.863 131.41 202.668C130.791 202.458 130.314 202.122 129.979 201.661C129.643 201.2 129.432 200.648 129.343 200.005C129.243 199.357 129.261 198.657 129.396 197.903L129.985 194.444L131.71 195.231L131.26 198.158C131.194 198.629 131.224 199.052 131.349 199.428C131.462 199.8 131.71 200.051 132.09 200.18C132.424 200.294 132.714 200.259 132.961 200.077C133.212 199.883 133.403 199.594 133.532 199.211C133.693 198.733 133.731 198.266 133.646 197.811C133.549 197.351 133.358 196.933 133.074 196.556C132.79 196.179 132.436 195.892 132.012 195.694L129.699 194.527C129.393 194.369 129.108 194.332 128.841 194.414C128.566 194.481 128.325 194.625 128.117 194.848C127.91 195.07 127.753 195.337 127.648 195.648C127.467 196.186 127.446 196.719 127.587 197.247C127.731 197.763 127.985 198.209 128.349 198.586L126.69 200.081C126.263 199.656 125.944 199.167 125.732 198.615C125.512 198.047 125.398 197.441 125.39 196.799C125.373 196.14 125.476 195.481 125.697 194.824C125.964 194.035 126.354 193.388 126.87 192.883C127.389 192.367 127.971 192.038 128.615 191.898C129.26 191.757 129.921 191.863 130.598 192.213L136.621 195.244L135.865 197.486L134.284 196.688L134.501 196.102C134.817 196.543 135.049 196.995 135.198 197.459C135.346 197.923 135.412 198.398 135.393 198.885C135.391 199.365 135.305 199.855 135.135 200.357Z" fill="#073B4C"/>
<path d="M137.36 193.055L128.108 188.385L128.859 186.161L130.922 187.183L130.546 187.235C129.933 186.653 129.571 186.056 129.458 185.445C129.35 184.822 129.411 184.169 129.641 183.488L129.835 182.914L131.809 183.906L131.524 184.749C131.298 185.418 131.321 186.059 131.592 186.672C131.855 187.268 132.381 187.774 133.17 188.189L138.159 190.687L137.36 193.055Z" fill="#073B4C"/>
<path d="M141.538 181.379C141.215 182.336 140.724 183.102 140.066 183.678C139.411 184.241 138.66 184.599 137.813 184.75C136.958 184.886 136.084 184.801 135.192 184.497C134.454 184.246 133.806 183.885 133.248 183.416C132.682 182.93 132.228 182.368 131.885 181.732C131.547 181.083 131.346 180.401 131.282 179.686C131.206 178.967 131.293 178.237 131.543 177.496C131.866 176.539 132.336 175.793 132.955 175.257C133.574 174.721 134.275 174.393 135.058 174.273C135.83 174.15 136.626 174.227 137.447 174.507C137.661 174.58 137.875 174.673 138.089 174.786C138.304 174.899 138.514 175.024 138.719 175.16L136.178 182.694L134.435 181.96L136.523 175.772L136.933 177.212C136.45 176.874 135.978 176.7 135.517 176.689C135.048 176.663 134.63 176.781 134.263 177.042C133.9 177.292 133.634 177.668 133.465 178.17C133.243 178.828 133.224 179.415 133.408 179.931C133.597 180.435 133.938 180.878 134.433 181.259C134.92 181.625 135.503 181.924 136.181 182.155C136.705 182.333 137.189 182.391 137.634 182.33C138.084 182.256 138.47 182.074 138.794 181.785C139.105 181.491 139.341 181.105 139.503 180.626C139.684 180.088 139.725 179.575 139.624 179.088C139.523 178.6 139.328 178.174 139.04 177.809L140.633 176.272C141.021 176.657 141.32 177.126 141.532 177.678C141.748 178.218 141.86 178.81 141.869 179.452C141.87 180.079 141.759 180.722 141.538 181.379Z" fill="#073B4C"/>
<path d="M143.334 175.346L134.082 170.676L134.827 168.47L136.652 169.371L136.211 169.381C135.721 168.868 135.429 168.295 135.337 167.664C135.233 167.029 135.292 166.382 135.514 165.724C135.764 164.983 136.148 164.414 136.667 164.017C137.189 163.609 137.789 163.386 138.464 163.35C139.132 163.297 139.817 163.45 140.519 163.809L146.25 166.701L145.458 169.051L139.982 166.286C139.391 165.992 138.859 165.937 138.385 166.122C137.911 166.307 137.577 166.687 137.384 167.261C137.255 167.644 137.223 168.033 137.289 168.428C137.346 168.808 137.493 169.158 137.73 169.479C137.971 169.787 138.294 170.051 138.698 170.268L144.126 172.997L143.334 175.346Z" fill="#073B4C"/>
<path d="M148.565 160.195C148.185 161.319 147.594 162.05 146.789 162.39C145.977 162.713 145.053 162.619 144.019 162.106L139.988 160.073L139.425 161.742L137.433 160.743L137.475 160.618C137.637 160.139 137.635 159.692 137.47 159.276C137.305 158.86 136.995 158.541 136.539 158.319L135.891 157.999L136.696 155.613L138.806 156.672L139.551 154.466L141.543 155.464L140.792 157.688L144.806 159.715C145.123 159.876 145.399 159.963 145.633 159.976C145.871 159.977 146.078 159.895 146.254 159.728C146.434 159.549 146.586 159.274 146.711 158.904C146.748 158.796 146.784 158.688 146.82 158.581C146.845 158.469 146.869 158.338 146.894 158.186L148.833 159.046C148.824 159.23 148.789 159.431 148.728 159.651C148.671 159.858 148.617 160.039 148.565 160.195Z" fill="#073B4C"/>
<path d="M149.438 157.252L136.565 150.749L137.364 148.381L150.236 154.885L149.438 157.252Z" fill="#073B4C"/>
<path d="M155.161 153.324C155.06 153.623 154.938 153.888 154.794 154.119C154.665 154.342 154.521 154.533 154.362 154.692L152.5 153.898C152.588 153.754 152.678 153.585 152.771 153.39C152.879 153.187 152.959 153.008 153.012 152.852C153.133 152.493 153.168 152.172 153.118 151.888C153.084 151.597 152.984 151.323 152.818 151.066C152.668 150.802 152.489 150.548 152.279 150.303L151.148 148.938L153.033 149.84L141.42 148.925L142.237 146.503L150.757 147.325L150.442 148.258L143.937 141.463L144.832 138.808L153.649 148.25C154.155 148.795 154.551 149.35 154.839 149.915C155.142 150.471 155.318 151.031 155.367 151.594C155.427 152.162 155.359 152.738 155.161 153.324Z" fill="#073B4C"/>
<defs>
<linearGradient id="paint0_linear_2921_443" x1="200" y1="135" x2="200" y2="264" gradientUnits="userSpaceOnUse">
<stop stop-color="#073B4C" stop-opacity="0.8"/>
<stop offset="1" stop-color="#EF476F"/>
</linearGradient>
</defs>
</svg>
