<svg width="1920" height="1080" viewBox="0 0 1920 1080" fill="none" xmlns="http://www.w3.org/2000/svg">
<rect width="1920" height="1080" fill="white"/>
<path fill-rule="evenodd" clip-rule="evenodd" d="M949.862 547.818V482.327C941.102 482.327 932.684 480.65 924.609 477.297C916.534 473.943 909.417 469.187 903.258 463.028C897.099 456.869 892.377 449.752 889.092 441.677C885.807 433.601 884.164 425.184 884.164 416.424V400H900.589C909.211 400 917.561 401.677 925.636 405.03C933.711 408.383 940.828 413.139 946.987 419.298C951.23 423.541 954.755 428.195 957.56 433.259C960.366 438.323 962.522 443.73 964.027 449.478C964.712 448.52 965.465 447.596 966.286 446.707C967.107 445.817 967.997 444.893 968.955 443.935C975.114 437.776 982.231 433.02 990.306 429.666C998.382 426.313 1006.8 424.636 1015.56 424.636H1031.98V441.061C1031.98 449.82 1030.31 458.238 1026.95 466.313C1023.6 474.388 1018.84 481.505 1012.68 487.665C1006.53 493.824 999.442 498.546 991.436 501.83C983.429 505.115 975.045 506.758 966.286 506.758V547.818L967.312 644.824H948.835L949.862 547.818ZM949.862 465.697C949.862 459.127 948.596 452.866 946.063 446.912C943.531 440.958 939.939 435.654 935.285 431.001C930.632 426.347 925.328 422.754 919.374 420.222C913.42 417.69 907.159 416.424 900.589 416.424C900.589 422.994 901.821 429.29 904.284 435.312C906.748 441.334 910.307 446.672 914.96 451.326C919.614 455.979 924.951 459.538 930.974 462.002C936.996 464.465 943.292 465.697 949.862 465.697ZM966.286 490.333C972.856 490.333 979.117 489.102 985.071 486.638C991.025 484.174 996.329 480.616 1000.98 475.962C1005.64 471.309 1009.23 465.971 1011.76 459.949C1014.29 453.926 1015.56 447.63 1015.56 441.061C1008.99 441.061 1002.69 442.327 996.671 444.859C990.648 447.391 985.311 450.984 980.657 455.637C976.003 460.291 972.445 465.594 969.981 471.548C967.518 477.502 966.286 483.764 966.286 490.333Z" fill="#4B5C4E"/>
<path d="M557.957 595.282V644.824H581.585V595.13L619.237 531.258H592.713L569.695 571.654L546.524 531.258H520L557.957 595.282Z" fill="#4B5C4E"/>
<path fill-rule="evenodd" clip-rule="evenodd" d="M638.981 643.452C643.656 645.587 649.144 646.654 655.444 646.654C660.322 646.654 664.642 645.942 668.402 644.519C672.264 642.995 675.769 640.556 678.92 637.202V644.824H700.261V589.947C700.261 583.951 698.737 578.717 695.688 574.246C692.741 569.672 688.574 566.116 683.188 563.575C677.904 561.034 671.705 559.764 664.591 559.764C655.749 559.764 647.975 561.797 641.268 565.862C634.662 569.927 630.14 575.414 627.701 582.325L647.365 591.776C648.585 588.016 650.719 585.069 653.768 582.935C656.918 580.699 660.526 579.581 664.591 579.581C668.452 579.581 671.552 580.546 673.889 582.477C676.227 584.306 677.396 586.796 677.396 589.947V592.691L651.329 598.178C642.894 599.906 636.339 602.802 631.664 606.867C626.989 610.831 624.652 615.912 624.652 622.111C624.652 626.684 625.872 630.851 628.311 634.611C630.851 638.269 634.408 641.217 638.981 643.452ZM651.176 627.751C649.245 626.329 648.28 624.347 648.28 621.806C648.28 617.741 650.668 615.15 655.444 614.032L677.396 609.154V613.117C677.396 617.792 675.617 621.755 672.06 625.007C668.503 628.259 664.133 629.885 658.951 629.885C655.698 629.885 653.107 629.174 651.176 627.751Z" fill="#4B5C4E"/>
<path d="M733.934 678.208C736.272 678.615 738.66 678.818 741.099 678.818C746.688 678.818 751.363 677.903 755.123 676.074C758.985 674.346 762.135 672.111 764.574 669.367C767.013 666.623 768.944 663.828 770.367 660.983C771.79 658.239 772.857 655.901 773.568 653.971L809.696 561.593H785.306L765.641 615.556L745.977 561.593H721.587L754.209 644.824L752.075 649.55C751.058 651.786 749.636 653.92 747.806 655.952C746.079 657.985 742.928 659.001 738.355 659.001C734.697 659.001 731.241 658.493 727.989 657.477V676.226C729.717 677.141 731.699 677.802 733.934 678.208Z" fill="#4B5C4E"/>
<path fill-rule="evenodd" clip-rule="evenodd" d="M835.629 531.258V644.824H859.257V603.666H882.275C889.999 603.666 896.859 602.294 902.855 599.55C908.952 596.705 913.728 592.589 917.184 587.203C920.741 581.817 922.519 575.262 922.519 567.538C922.519 559.612 920.791 552.955 917.336 547.569C913.881 542.183 909.104 538.118 903.007 535.374C897.011 532.63 890.1 531.258 882.275 531.258H835.629ZM882.428 583.087H859.257V551.837H882.428C887.408 551.837 891.371 553.26 894.318 556.106C897.367 558.951 898.891 562.762 898.891 567.538C898.891 572.213 897.367 575.973 894.318 578.819C891.371 581.664 887.408 583.087 882.428 583.087Z" fill="#4B5C4E"/>
<path fill-rule="evenodd" clip-rule="evenodd" d="M1004.68 643.452C1009.35 645.587 1014.84 646.654 1021.14 646.654C1026.02 646.654 1030.34 645.942 1034.1 644.519C1037.96 642.995 1041.47 640.556 1044.62 637.202V644.824H1065.96V589.947C1065.96 583.951 1064.43 578.717 1061.38 574.246C1058.44 569.672 1054.27 566.116 1048.88 563.575C1043.6 561.034 1037.4 559.764 1030.29 559.764C1021.45 559.764 1013.67 561.797 1006.96 565.862C1000.36 569.927 995.836 575.414 993.397 582.325L1013.06 591.776C1014.28 588.016 1016.41 585.069 1019.46 582.935C1022.61 580.699 1026.22 579.581 1030.29 579.581C1034.15 579.581 1037.25 580.546 1039.59 582.477C1041.92 584.306 1043.09 586.796 1043.09 589.947V592.691L1017.02 598.178C1008.59 599.906 1002.03 602.802 997.36 606.867C992.685 610.831 990.348 615.912 990.348 622.111C990.348 626.684 991.567 630.851 994.006 634.611C996.547 638.269 1000.1 641.217 1004.68 643.452ZM1016.87 627.751C1014.94 626.329 1013.98 624.347 1013.98 621.806C1013.98 617.741 1016.36 615.15 1021.14 614.032L1043.09 609.154V613.117C1043.09 617.792 1041.31 621.755 1037.76 625.007C1034.2 628.259 1029.83 629.885 1024.65 629.885C1021.39 629.885 1018.8 629.174 1016.87 627.751Z" fill="#4B5C4E"/>
<path d="M1094.9 561.593V644.824H1117.77V596.197C1117.77 591.42 1119.19 587.609 1122.04 584.764C1124.88 581.817 1128.54 580.343 1133.01 580.343C1137.49 580.343 1141.14 581.817 1143.99 584.764C1146.84 587.609 1148.26 591.42 1148.26 596.197V644.824H1171.12V591.319C1171.12 585.018 1169.8 579.53 1167.16 574.855C1164.52 570.079 1160.81 566.37 1156.03 563.727C1151.36 561.085 1145.87 559.764 1139.57 559.764C1134.28 559.764 1129.61 560.78 1125.54 562.813C1121.48 564.744 1118.38 567.742 1116.25 571.807V561.593H1094.9Z" fill="#4B5C4E"/>
<path d="M1218.05 637.66C1223.64 643.046 1231.47 645.739 1241.53 645.739C1245.29 645.739 1248.84 645.485 1252.2 644.977V626.989C1250.06 627.294 1248.28 627.446 1246.86 627.446C1237.41 627.446 1232.68 623.229 1232.68 614.794V581.41H1252.2V561.593H1232.68V536.594H1209.82V548.788C1209.82 557.325 1205.4 561.593 1196.56 561.593H1195.49V581.41H1209.82V614.794C1209.82 624.55 1212.56 632.172 1218.05 637.66Z" fill="#4B5C4E"/>
<path d="M1289.44 640.404C1296.35 644.57 1304.33 646.654 1313.38 646.654C1320.08 646.654 1325.98 645.587 1331.06 643.452C1336.14 641.217 1340.1 638.168 1342.95 634.306C1345.8 630.343 1347.22 625.82 1347.22 620.739C1347.22 614.743 1345.29 609.662 1341.42 605.495C1337.56 601.329 1331.92 598.28 1324.5 596.349L1309.11 592.233C1308.19 591.928 1307.08 591.573 1305.75 591.166C1304.43 590.658 1303.21 589.896 1302.1 588.88C1301.08 587.863 1300.57 586.542 1300.57 584.916C1300.57 582.782 1301.49 581.105 1303.32 579.886C1305.25 578.666 1307.89 578.057 1311.24 578.057C1315.71 578.057 1319.63 579.073 1322.98 581.105C1326.44 583.138 1328.82 585.933 1330.14 589.489L1347.22 581.563C1344.58 574.754 1340.05 569.418 1333.65 565.557C1327.25 561.695 1319.78 559.764 1311.24 559.764C1304.74 559.764 1299 560.882 1294.02 563.118C1289.14 565.252 1285.33 568.25 1282.58 572.111C1279.84 575.973 1278.47 580.496 1278.47 585.678C1278.47 591.369 1280.3 596.349 1283.96 600.617C1287.72 604.784 1293.36 607.883 1300.88 609.916L1315.51 613.727C1316.53 613.93 1317.75 614.337 1319.17 614.947C1320.69 615.455 1322.07 616.268 1323.28 617.385C1324.5 618.402 1325.11 619.825 1325.11 621.654C1325.11 623.889 1324.05 625.719 1321.91 627.141C1319.78 628.463 1316.93 629.123 1313.38 629.123C1303.72 629.123 1296.61 624.347 1292.04 614.794L1275.11 622.721C1277.76 630.241 1282.53 636.135 1289.44 640.404Z" fill="#4B5C4E"/>
<path d="M1376.13 531.258L1377.66 609.764H1397.48L1399 531.258H1376.13Z" fill="#4B5C4E"/>
<path d="M1376.13 621.959V644.824H1399V621.959H1376.13Z" fill="#4B5C4E"/>
</svg>
